<?xml version="1.0" encoding="UTF-8" standalone="no"?>
<svg
   viewBox="100 0 500 500"
   version="1.1"
   id="svg2"
   sodipodi:docname="logo.svg"
   inkscape:version="1.3 (0e150ed6c4, 2023-07-21)"
   xmlns:inkscape="http://www.inkscape.org/namespaces/inkscape"
   xmlns:sodipodi="http://sodipodi.sourceforge.net/DTD/sodipodi-0.dtd"
   xmlns:xlink="http://www.w3.org/1999/xlink"
   xmlns="http://www.w3.org/2000/svg"
   xmlns:svg="http://www.w3.org/2000/svg">
  <defs
     id="defs2">
    <linearGradient
       id="linearGradient5"
       inkscape:collect="always">
      <stop
         style="stop-color:#309598;stop-opacity:1;"
         offset="0.5"
         id="stop4" />
      <stop
         style="stop-color:#f0f0f0;stop-opacity:1;"
         offset="1"
         id="stop5" />
    </linearGradient>
    <linearGradient
       id="linearGradient3"
       inkscape:collect="always">
      <stop
         style="stop-color:#309598;stop-opacity:1;"
         offset="0"
         id="stop3" />
      <stop
         style="stop-color:#f0f0f0;stop-opacity:1;"
         offset="1"
         id="stop2" />
    </linearGradient>
    <linearGradient
       inkscape:collect="always"
       xlink:href="#linearGradient5"
       id="linearGradient7"
       x1="125.81513"
       y1="238.62274"
       x2="568.38977"
       y2="238.62274"
       gradientUnits="userSpaceOnUse"
       spreadMethod="reflect" />
    <linearGradient
       inkscape:collect="always"
       xlink:href="#linearGradient3"
       id="linearGradient2"
       x1="125.81513"
       y1="238.6301"
       x2="568.38977"
       y2="238.6301"
       gradientUnits="userSpaceOnUse" />
  </defs>
  <sodipodi:namedview
     id="namedview2"
     pagecolor="#505050"
     bordercolor="#eeeeee"
     borderopacity="1"
     inkscape:showpageshadow="0"
     inkscape:pageopacity="0"
     inkscape:pagecheckerboard="0"
     inkscape:deskcolor="#505050"
     inkscape:zoom="1.714"
     inkscape:cx="234.24737"
     inkscape:cy="226.07935"
     inkscape:window-width="1920"
     inkscape:window-height="1055"
     inkscape:window-x="0"
     inkscape:window-y="25"
     inkscape:window-maximized="0"
     inkscape:current-layer="svg2" />
  <path
     id="path3"
     style="color:#000000;fill:url(#linearGradient2);fill-opacity:1;stroke:url(#linearGradient7);stroke-width:10;stroke-linecap:round;stroke-linejoin:miter;stroke-dasharray:none;stroke-opacity:1;paint-order:normal"
     inkscape:label="Logo"
     d="M 130.81513,60.397458 V 416.99192 c 69.90159,-0.20683 139.80327,-0.3829 209.7048,-0.60893 14.56133,-0.1714 29.2797,-1.18505 43.34571,-5.23478 10.45617,-3.07004 20.80431,-7.62508 28.77161,-15.25296 7.6236,-7.27402 12.89148,-16.88092 15.2015,-27.13392 1.13723,-4.68857 1.94812,-9.73467 2.39146,-14.65089 0.18175,-2.07372 0.33987,-4.40329 0.40839,-6.64781 0.16208,-7.83646 0.0343,-15.67582 0.075,-23.51345 -0.0416,-8.59045 0.0909,-17.18342 -0.0821,-25.77211 -0.14515,-4.91299 -0.50654,-9.76444 -1.12634,-14.67962 -0.37499,-2.95393 -0.86038,-5.99748 -1.45621,-8.99534 -0.88848,-4.65958 -2.31816,-9.46616 -4.30605,-13.87549 -4.45893,-10.03933 -11.75579,-18.85856 -21.03955,-24.77848 -6.35929,-4.09936 -13.38085,-7.15337 -20.65017,-9.23487 -1.13298,-0.3018 -2.27388,-0.57327 -3.4105,-0.86118 -0.33911,-0.91748 -1.03115,-1.773 -1.15147,-2.72887 0.0933,-0.87885 0.97483,-1.45089 1.36651,-2.22393 3.36461,-4.69354 5.18284,-10.24508 6.89565,-15.69613 0.65523,-2.21723 1.28756,-4.69825 1.74488,-6.8046 1.86444,-8.4622 2.45766,-17.14866 2.32341,-25.79303 -0.023,-13.00681 0.0464,-26.01463 -0.0357,-39.02081 -0.0573,-2.77414 -0.20806,-5.3562 -0.44838,-8.10279 -0.14373,-1.62479 -0.37905,-3.6766 -0.60021,-5.27678 -1.22164,-8.57594 -3.23528,-17.19118 -7.4974,-24.801643 -3.50628,-6.393802 -8.19211,-12.160902 -13.82227,-16.801614 -1.37765,-1.138113 -3.04778,-2.369135 -4.6236,-3.424702 -8.45363,-5.590965 -18.06962,-9.2563 -27.90319,-11.596266 -6.09126,-1.427125 -12.30225,-2.293614 -18.53249,-2.847238 -1.67382,-0.131501 -3.64352,-0.285034 -5.43315,-0.380121 z m 134.57362,27.836345 c 12.61243,-0.08909 25.3759,0.637434 37.56731,4.049734 5.59812,1.662729 11.2861,3.812436 15.64595,7.822293 3.07414,3.23444 5.52589,7.03556 7.54131,11.00744 4.19216,8.31687 5.58581,17.76329 5.41411,27.01015 -0.0214,13.56494 0.0435,27.13029 -0.0336,40.69496 -0.14683,5.51201 -0.75336,11.01616 -1.88802,16.41645 0.10758,-0.84835 -0.15982,0.97766 -0.30829,1.29924 -1.71774,6.88202 -6.84204,12.51806 -12.95141,15.91134 -7.8444,4.46021 -16.71642,6.77858 -25.61389,7.88804 -10.71604,1.444 -21.54436,1.41659 -32.33107,1.41167 -22.45088,0.0633 -44.90177,0.12649 -67.35265,0.18974 -0.67167,-0.4061 -1.7169,-0.47153 -1.79308,-1.42065 -0.43299,-1.28296 -0.10278,-2.70104 -0.20601,-4.04237 V 90.450283 c 0.408,-0.672831 0.47641,-1.718261 1.42575,-1.797148 1.28419,-0.436642 2.70133,-0.110471 4.04296,-0.217526 23.61355,-0.06727 47.22711,-0.134537 70.84066,-0.201806 z M 283.0297,249.89262 c 10.22916,0.004 20.45954,-0.1286 30.68789,-0.0286 10.81522,0.27577 21.74914,1.31279 32.06229,4.72419 5.35934,1.85913 10.79964,4.35279 14.53239,8.76777 6.65126,8.4624 10.32277,18.97062 11.53291,29.60842 0.9311,7.62462 0.50777,15.32257 0.6042,22.98447 -0.0266,10.00673 0.0539,20.01434 -0.0416,30.02054 -0.24982,8.91788 -2.19211,18.07114 -7.30651,25.54028 -4.17198,5.99817 -7.2604,8.99585 -19.82626,12.56605 -13.2282,3.52381 -27.00123,4.26385 -40.62363,4.20126 -37.85765,0.10784 -75.71529,0.21569 -113.57294,0.32353 -0.67167,-0.4061 -1.7169,-0.47152 -1.79308,-1.42064 -0.43299,-1.28296 -0.10278,-2.70104 -0.20601,-4.04238 V 252.15936 c 0.408,-0.67283 0.47641,-1.71826 1.42575,-1.79715 1.28419,-0.43664 2.70133,-0.11047 4.04296,-0.21753 29.49387,-0.084 58.98773,-0.16804 88.48161,-0.25206 z m 178.18832,166.15807 c 19.42196,-0.0569 38.84222,-0.10648 58.26425,-0.16356 v -80.886 c -19.42142,0.0553 -38.84284,0.11065 -58.26425,0.16598 z m 73.95207,-0.21067 28.21971,-0.0804 v -80.88358 l -28.21971,0.0804 z"
     sodipodi:nodetypes="ccccccccccccccccccccccccccccccccccccccccccccccccccscccccccccccccccsscccccccccc" />
</svg>
