<?xml version="1.0" encoding="UTF-8" standalone="no"?>
<svg
   viewBox="0 0 500 500"
   version="1.1"
   id="svg2"
   sodipodi:docname="logo-light.svg"
   inkscape:version="1.3 (0e150ed6c4, 2023-07-21)"
   width="500"
   height="500"
   xmlns:inkscape="http://www.inkscape.org/namespaces/inkscape"
   xmlns:sodipodi="http://sodipodi.sourceforge.net/DTD/sodipodi-0.dtd"
   xmlns:xlink="http://www.w3.org/1999/xlink"
   xmlns="http://www.w3.org/2000/svg"
   xmlns:svg="http://www.w3.org/2000/svg">
  <defs
     id="defs2">
    <linearGradient
       id="linearGradient53"
       inkscape:collect="always">
      <stop
         style="stop-color:#ffffff;stop-opacity:1;"
         offset="0"
         id="stop53" />
      <stop
         style="stop-color:#916f7a;stop-opacity:1;"
         offset="1"
         id="stop54" />
    </linearGradient>
    <clipPath
       clipPathUnits="userSpaceOnUse"
       id="clipPath24">
      <rect
         style="fill:none;stroke:#000000;stroke-width:0.999999;stroke-linecap:butt;stroke-linejoin:bevel;paint-order:stroke markers fill;stop-color:#000000"
         id="rect24"
         width="44.999748"
         height="77.937294"
         x="251.53429"
         y="222.73541" />
    </clipPath>
    <clipPath
       clipPathUnits="userSpaceOnUse"
       id="clipPath5">
      <path
         id="path5"
         style="stroke-width:0.1;stroke-linecap:square;paint-order:markers fill stroke;stop-color:#000000"
         d="M 438.25066,553.76374 H 1298.1212 V 755.15928 H 438.25066 Z"
         sodipodi:nodetypes="ccccc" />
    </clipPath>
    <clipPath
       clipPathUnits="userSpaceOnUse"
       id="clipPath55">
      <path
         id="path55"
         style="stroke-width:0.1;stroke-linecap:square;paint-order:markers fill stroke;stop-color:#000000"
         d="m 1736.6147,-745.57287 h 1589.4765 v 72.46715 H 1736.6147 Z" />
    </clipPath>
    <clipPath
       clipPathUnits="userSpaceOnUse"
       id="clipPath13">
      <path
         id="path13"
         style="stroke-width:0.0999999;stroke-linecap:square;paint-order:markers fill stroke;stop-color:#000000"
         d="m 1691.1994,-792.32001 h 1634.8919 v 92.82806 H 1691.1994 Z" />
    </clipPath>
    <clipPath
       clipPathUnits="userSpaceOnUse"
       id="clipPath54">
      <path
         id="path54"
         style="stroke-width:0.0999999;stroke-linecap:square;paint-order:markers fill stroke;stop-color:#000000"
         d="m 1691.1994,-792.32001 h 1634.8919 v 92.82806 H 1691.1994 Z" />
    </clipPath>
    <clipPath
       clipPathUnits="userSpaceOnUse"
       id="clipPath33">
      <rect
         style="fill:#000000;stroke:none;stroke-width:0.999995;stroke-linecap:butt;stroke-linejoin:bevel;paint-order:stroke markers fill;stop-color:#000000"
         id="rect33"
         width="46.19186"
         height="80.006783"
         x="74.999985"
         y="399.99661" />
    </clipPath>
    <linearGradient
       id="swatch6"
       inkscape:swatch="solid">
      <stop
         style="stop-color:#000000;stop-opacity:1;"
         offset="0"
         id="stop6" />
    </linearGradient>
    <filter
       style="color-interpolation-filters:sRGB"
       inkscape:label="Drop Shadow"
       id="filter87"
       x="-0.034524541"
       y="-0.042310709"
       width="1.0856177"
       height="1.1047186">
      <feFlood
         result="flood"
         in="SourceGraphic"
         flood-opacity="0.666667"
         flood-color="rgb(161,245,245)"
         id="feFlood86" />
      <feGaussianBlur
         result="blur"
         in="SourceGraphic"
         stdDeviation="0.001 0.087"
         id="feGaussianBlur86" />
      <feOffset
         result="offset"
         in="blur"
         dx="6.000000"
         dy="6.000000"
         id="feOffset86" />
      <feComposite
         result="comp1"
         operator="in"
         in="flood"
         in2="offset"
         id="feComposite86" />
      <feComposite
         result="comp2"
         operator="over"
         in="SourceGraphic"
         in2="comp1"
         id="feComposite87" />
    </filter>
    <clipPath
       clipPathUnits="userSpaceOnUse"
       id="clipPath88">
      <g
         inkscape:label="Clip"
         id="use88">
        <path
           id="path88"
           style="fill:url(#radialGradient89);fill-opacity:1;stroke:none;stroke-width:19.6642;stroke-linecap:butt;stroke-linejoin:miter;stroke-dasharray:none;stroke-dashoffset:0;stroke-opacity:1;paint-order:stroke fill markers"
           d="m 157.76926,426.56051 c 90.61843,97.91932 293.84305,97.91932 384.46149,0 77.02567,-83.23143 77.02567,-269.88959 0,-353.12102 -90.61845,-97.91932 -293.84306,-97.91932 -384.4615,0 -77.025667,83.23143 -77.025667,269.88959 1e-5,353.12102 z"
           sodipodi:nodetypes="aaaaa" />
      </g>
    </clipPath>
    <radialGradient
       inkscape:collect="always"
       xlink:href="#linearGradient53"
       id="radialGradient89"
       gradientUnits="userSpaceOnUse"
       gradientTransform="matrix(1.8263088,0,0,1.8263088,-405.01104,-298.31724)"
       cx="490.14487"
       cy="361.0239"
       fx="490.14487"
       fy="361.0239"
       r="250" />
    <mask
       maskUnits="userSpaceOnUse"
       id="mask89">
      <path
         id="path89"
         style="fill:url(#radialGradient90);fill-opacity:1;stroke:none;stroke-width:19.6642;stroke-linecap:butt;stroke-linejoin:miter;stroke-dasharray:none;stroke-dashoffset:0;stroke-opacity:1;paint-order:stroke fill markers"
         d="m 157.76926,426.56051 c 90.61843,97.91932 293.84305,97.91932 384.46149,0 77.02567,-83.23143 77.02567,-269.88959 0,-353.12102 -90.61845,-97.91932 -293.84306,-97.91932 -384.4615,0 -77.025667,83.23143 -77.025667,269.88959 1e-5,353.12102 z"
         sodipodi:nodetypes="aaaaa" />
    </mask>
    <radialGradient
       inkscape:collect="always"
       xlink:href="#linearGradient53"
       id="radialGradient90"
       gradientUnits="userSpaceOnUse"
       gradientTransform="matrix(1.8263088,0,0,1.8263088,-405.01104,-298.31724)"
       cx="490.14487"
       cy="361.0239"
       fx="490.14487"
       fy="361.0239"
       r="250" />
  </defs>
  <sodipodi:namedview
     id="namedview2"
     pagecolor="#505050"
     bordercolor="#eeeeee"
     borderopacity="1"
     inkscape:showpageshadow="0"
     inkscape:pageopacity="0"
     inkscape:pagecheckerboard="0"
     inkscape:deskcolor="#505050"
     inkscape:zoom="0.857"
     inkscape:cx="156.35939"
     inkscape:cy="217.6196"
     inkscape:window-width="1920"
     inkscape:window-height="1055"
     inkscape:window-x="0"
     inkscape:window-y="25"
     inkscape:window-maximized="0"
     inkscape:current-layer="svg2"
     showgrid="false">
    <inkscape:grid
       id="grid90"
       units="px"
       originx="-9.9999997e-07"
       originy="-3.5527137e-14"
       spacingx="1"
       spacingy="1"
       empcolor="#0099e5"
       empopacity="0.30196078"
       color="#0099e5"
       opacity="0.14901961"
       empspacing="5"
       dotted="false"
       gridanglex="30"
       gridanglez="30"
       visible="false" />
  </sodipodi:namedview>
  <g
     id="g90"
     transform="matrix(1.1622756,0,0,1.1622756,-41.329297,-27.090055)">
    <path
       d="m 44.216656,88.332124 c -1.62751,0.0021 -3.25503,0.0031 -4.88255,0.0052 V 388.58758 c 59.08475,-0.17324 118.169734,-0.32266 177.254274,-0.53631 12.62093,-0.22067 25.38693,-1.27683 37.46617,-5.15984 8.42998,-2.69219 16.64089,-6.67811 23.08933,-12.84547 7.41927,-7.05035 12.32193,-16.55869 14.23815,-26.57908 1.70482,-7.77128 2.12323,-15.75985 2.0069,-23.69598 -0.0139,-10.60484 0.0428,-21.21034 -0.0421,-31.81473 -0.20965,-8.67198 -1.09423,-17.37252 -3.26375,-25.78705 -3.08992,-11.43641 -10.03848,-21.88473 -19.72534,-28.77063 -5.64285,-4.02151 -12.01309,-6.93809 -18.60189,-9.03242 2.74009,-4.78611 4.349,-10.10873 5.77187,-15.4065 2.11538,-8.43225 2.7283,-17.1687 2.55782,-25.83915 -0.0316,-10.75193 0.077,-21.50549 -0.0955,-32.25623 -0.3585,-8.55192 -1.62487,-17.14319 -4.5704,-25.20931 -4.17228,-10.98931 -12.19422,-20.48936 -22.41054,-26.326332 -9.59611,-5.61084 -20.48201,-8.71036 -31.45375,-10.15312 -3.95783,-0.50761 -7.94066,-0.886398 -11.93149,-0.958369 -48.46907,0.03851 -96.938164,0.07702 -145.407244,0.115492 z M 155.74359,120.77743 c 2.43117,0.0124 4.99614,0.0652 7.34051,0.16863 2.25259,0.10639 4.50169,0.27667 6.74552,0.50114 0.39396,0.043 1.07944,0.12349 1.58509,0.18086 2.90286,0.34385 5.78655,0.85082 8.63819,1.4928 0.36972,0.0866 0.90482,0.20959 1.28788,0.31078 3.69191,0.96054 7.39952,2.15242 10.62083,4.24513 1.6064,1.00418 2.84441,2.45943 3.9329,3.98675 3.21104,4.40806 5.35371,9.57314 6.24209,14.95289 0.72519,4.02204 0.77612,8.12159 0.71213,12.19586 -0.0304,11.33529 0.0862,22.67211 -0.10834,34.00621 -0.0302,2.67006 -0.29854,5.34418 -1.00988,7.92449 -0.55455,2.47899 -1.28214,5.0055 -2.89697,7.02295 -2.63687,3.5815 -6.68088,5.74627 -10.71952,7.38118 -4.43355,1.7803 -9.0635,2.80639 -13.83458,3.45781 -0.39385,0.0509 -1.07823,0.13353 -1.5834,0.1966 -9.11319,1.09012 -18.30904,0.93381 -27.46973,0.96611 -16.22219,0.044 -32.44444,0.0935 -48.666674,0.13708 0.0242,-32.9899 0.002,-65.97986 0.009,-98.96977 19.724854,-0.0295 39.449604,-0.10905 59.174414,-0.1575 z m 31.21232,131.62984 c 3.26201,0.002 6.64349,0.0132 9.82874,0.16704 7.7933,0.41803 15.68419,1.36201 22.99998,4.22073 3.42769,1.3119 6.83278,3.2678 8.79424,6.4807 4.88489,7.06502 7.10113,15.68141 7.45839,24.18786 0.2656,5.92276 0.0403,11.85267 0.12043,17.77856 -0.033,7.4153 0.10073,14.83412 -0.12284,22.24675 -0.37011,6.14494 -1.9602,12.42272 -5.72563,17.39989 -1.46961,2.08556 -3.43467,3.8633 -5.81545,4.83685 -1.08186,0.508 -2.36134,1.0028 -3.38549,1.36024 -5.23739,1.75253 -10.69201,2.77625 -16.16856,3.42368 -3.16267,0.37173 -6.49343,0.60433 -9.73327,0.74295 -0.69233,0.0245 -1.71823,0.059 -2.42616,0.0812 -6.94594,0.13836 -13.89413,0.0686 -20.84105,0.11575 -25.12707,0.0706 -50.25413,0.14131 -75.381204,0.21198 0.0269,-34.3353 0.003,-68.67064 0.0112,-103.00594 30.128954,-0.0586 60.257834,-0.1698 90.386744,-0.24819 z"
       style="fill:#000000;fill-opacity:1;stroke:#000000;stroke-opacity:1"
       sodipodi:nodetypes="cccccccccccccccccccccsccccccccccccccccccsscccccccccccccccccc"
       id="path90" />
    <path
       d="m 333.61761,192.79011 c -24.61197,6.7858 -32.75162,9.11847 -57.3636,15.90431 l 48.37701,179.03308 c 25.33546,-6.98434 34.19888,-9.51462 59.53435,-16.49897 L 335.78735,192.19171 c -0.72296,0.20053 -1.44671,0.39816 -2.16958,0.59898 z"
       style="fill:#000000;fill-opacity:1;stroke:#000000;stroke-width:1.83756;stroke-opacity:1"
       id="path1"
       sodipodi:nodetypes="ccccccc"
       inkscape:transform-center-y="-97.917345"
       inkscape:transform-center-x="-6.535446" />
    <path
       d="m 383.73395,200.53645 c -13.02595,5.88444 -26.05284,11.76676 -39.07881,17.65114 l 75.47808,169.39965 c 13.70976,-6.19308 27.4202,-12.3846 41.12987,-18.57789 -25.15936,-56.46655 -50.31873,-112.93312 -75.47808,-169.39963 -0.68323,0.30989 -1.36771,0.61706 -2.05083,0.92724 z"
       style="fill:#000000;fill-opacity:1;stroke:#000000;stroke-width:1.83756;stroke-opacity:1"
       id="path1-3"
       inkscape:transform-center-x="16.766183"
       inkscape:transform-center-y="-94.647268" />
  </g>
</svg>
