<svg viewBox="100 0 500 500" xmlns="http://www.w3.org/2000/svg">
  <g transform="matrix(1.239154, -0.003529, 0, 1.239154, -79.412308, -77.757042)" style="">
    <path d="M 313.041 390.861 L 178.541 390.861 L 178.541 120.861 L 280.041 120.861 C 293.708 120.861 304.875 122.277 313.541 125.111 C 322.208 127.944 328.875 131.777 333.541 136.611 C 338.208 141.444 341.375 147.027 343.041 153.361 C 344.708 159.694 345.541 166.527 345.541 173.861 L 345.541 205.861 C 345.541 215.861 343.791 225.027 340.291 233.361 C 336.791 241.694 327.875 247.694 313.541 251.361 C 327.208 251.361 338.375 252.777 347.041 255.611 C 355.708 258.444 362.375 262.444 367.041 267.611 C 371.708 272.777 374.791 278.861 376.291 285.861 C 377.791 292.861 378.541 300.527 378.541 308.861 L 378.541 340.861 C 378.541 348.194 377.708 354.944 376.041 361.111 C 374.375 367.277 371.291 372.527 366.791 376.861 C 362.291 381.194 355.708 384.611 347.041 387.111 C 338.375 389.611 327.041 390.861 313.041 390.861 Z M 280.041 125.861 L 183.541 125.861 L 183.541 251.361 L 280.041 251.361 C 293.708 251.361 304.541 250.111 312.541 247.611 C 320.541 245.111 326.625 241.777 330.791 237.611 C 334.958 233.444 337.625 228.611 338.791 223.111 C 339.958 217.611 340.541 211.861 340.541 205.861 L 340.541 173.861 C 340.541 160.527 336.708 149.194 329.041 139.861 C 321.375 130.527 305.041 125.861 280.041 125.861 Z M 313.541 256.361 L 183.541 256.361 L 183.541 385.861 L 313.041 385.861 C 338.041 385.861 354.375 381.777 362.041 373.611 C 369.708 365.444 373.541 354.527 373.541 340.861 L 373.541 308.861 C 373.541 293.861 369.791 281.361 362.291 271.361 C 354.791 261.361 338.541 256.361 313.541 256.361 Z" style="fill: rgb(51, 51, 51); white-space: pre; stroke: rgb(0, 0, 0); stroke-width: 20px;"></path>
    <path d="M 445.177 390.861 L 445.177 343.361 L 450.177 343.361 L 450.177 390.861 L 445.177 390.861 Z" style="fill: rgb(51, 51, 51); white-space: pre; stroke: rgb(0, 0, 0); stroke-width: 20px;"></path>
    <path d="M 337.287 390.861 L 202.787 390.861 L 202.787 120.861 L 304.287 120.861 C 317.954 120.861 329.121 122.277 337.787 125.111 C 346.454 127.944 353.121 131.777 357.787 136.611 C 362.454 141.444 365.621 147.027 367.287 153.361 C 368.954 159.694 369.787 166.527 369.787 173.861 L 369.787 205.861 C 369.787 215.861 368.037 225.027 364.537 233.361 C 361.037 241.694 352.121 247.694 337.787 251.361 C 351.454 251.361 362.621 252.777 371.287 255.611 C 379.954 258.444 386.621 262.444 391.287 267.611 C 395.954 272.777 399.037 278.861 400.537 285.861 C 402.037 292.861 402.787 300.527 402.787 308.861 L 402.787 340.861 C 402.787 348.194 401.954 354.944 400.287 361.111 C 398.621 367.277 395.537 372.527 391.037 376.861 C 386.537 381.194 379.954 384.611 371.287 387.111 C 362.621 389.611 351.287 390.861 337.287 390.861 Z M 304.287 125.861 L 207.787 125.861 L 207.787 251.361 L 304.287 251.361 C 317.954 251.361 328.787 250.111 336.787 247.611 C 344.787 245.111 350.871 241.777 355.037 237.611 C 359.204 233.444 361.871 228.611 363.037 223.111 C 364.204 217.611 364.787 211.861 364.787 205.861 L 364.787 173.861 C 364.787 160.527 360.954 149.194 353.287 139.861 C 345.621 130.527 329.287 125.861 304.287 125.861 Z M 337.787 256.361 L 207.787 256.361 L 207.787 385.861 L 337.287 385.861 C 362.287 385.861 378.621 381.777 386.287 373.611 C 393.954 365.444 397.787 354.527 397.787 340.861 L 397.787 308.861 C 397.787 293.861 394.037 281.361 386.537 271.361 C 379.037 261.361 362.787 256.361 337.787 256.361 Z" style="fill: rgb(51, 51, 51); white-space: pre; stroke: rgb(0, 0, 0); stroke-width: 20px;"></path>
    <path d="M 469.423 390.861 L 469.423 343.361 L 474.423 343.361 L 474.423 390.861 L 469.423 390.861 Z" style="fill: rgb(51, 51, 51); white-space: pre; stroke: rgb(0, 0, 0); stroke-width: 20px;"></path>
    <path d="M 504.858 390.861 L 504.858 343.361 L 509.858 343.361 L 509.858 390.861 L 504.858 390.861 Z" style="fill: rgb(51, 51, 51); white-space: pre; stroke: rgb(0, 0, 0); stroke-width: 20px;"></path>
  </g>
</svg>
