<svg viewBox="100 0 500 500" xmlns="http://www.w3.org/2000/svg">
    <g stroke="#000" stroke-width="20">
        <path
            d="M313.041 390.861h-134.5v-270h101.5c13.667 0 24.834 1.416 33.5 4.25 8.667 2.833 15.334 6.666 20 11.5 4.667 4.833 7.834 10.416 9.5 16.75 1.667 6.333 2.5 13.166 2.5 20.5v32c0 10-1.75 19.166-5.25 27.5-3.5 8.333-12.416 14.333-26.75 18 13.667 0 24.834 1.416 33.5 4.25 8.667 2.833 15.334 6.833 20 12 4.667 5.166 7.75 11.25 9.25 18.25s2.25 14.666 2.25 23v32c0 7.333-.833 14.083-2.5 20.25-1.666 6.166-4.75 11.416-9.25 15.75-4.5 4.333-11.083 7.75-19.75 10.25-8.666 2.5-20 3.75-34 3.75zm-33-265h-96.5v125.5h96.5c13.667 0 24.5-1.25 32.5-3.75s14.084-5.834 18.25-10c4.167-4.167 6.834-9 8-14.5 1.167-5.5 1.75-11.25 1.75-17.25v-32c0-13.334-3.833-24.667-11.5-34-7.666-9.334-24-14-49-14zm33.5 130.5h-130v129.5h129.5c25 0 41.334-4.084 49-12.25 7.667-8.167 11.5-19.084 11.5-32.75v-32c0-15-3.75-27.5-11.25-37.5s-23.75-15-48.75-15zM445.177 390.861v-47.5h5v47.5h-5z"
            style="white-space:pre" transform="matrix(1.23915 -.00353 0 1.23915 -79.412 -77.757)" />
        <path
            d="M337.287 390.861h-134.5v-270h101.5c13.667 0 24.834 1.416 33.5 4.25 8.667 2.833 15.334 6.666 20 11.5 4.667 4.833 7.834 10.416 9.5 16.75 1.667 6.333 2.5 13.166 2.5 20.5v32c0 10-1.75 19.166-5.25 27.5-3.5 8.333-12.416 14.333-26.75 18 13.667 0 24.834 1.416 33.5 4.25 8.667 2.833 15.334 6.833 20 12 4.667 5.166 7.75 11.25 9.25 18.25s2.25 14.666 2.25 23v32c0 7.333-.833 14.083-2.5 20.25-1.666 6.166-4.75 11.416-9.25 15.75-4.5 4.333-11.083 7.75-19.75 10.25-8.666 2.5-20 3.75-34 3.75zm-33-265h-96.5v125.5h96.5c13.667 0 24.5-1.25 32.5-3.75s14.084-5.834 18.25-10c4.167-4.167 6.834-9 8-14.5 1.167-5.5 1.75-11.25 1.75-17.25v-32c0-13.334-3.833-24.667-11.5-34-7.666-9.334-24-14-49-14zm33.5 130.5h-130v129.5h129.5c25 0 41.334-4.084 49-12.25 7.667-8.167 11.5-19.084 11.5-32.75v-32c0-15-3.75-27.5-11.25-37.5s-23.75-15-48.75-15zM469.423 390.861v-47.5h5v47.5h-5zM504.858 390.861v-47.5h5v47.5h-5z"
            style="white-space:pre" transform="matrix(1.23915 -.00353 0 1.23915 -79.412 -77.757)" />
    </g>
</svg>